<?xml version="1.0" encoding="UTF-8"?>
<svg width="200px" height="56px" viewBox="0 0 200 56" version="1.1" xmlns="http://www.w3.org/2000/svg" xmlns:xlink="http://www.w3.org/1999/xlink">
    <!-- Generator: Sketch 52.6 (67491) - http://www.bohemiancoding.com/sketch -->
    <title>Group</title>
    <desc>Created with Sketch.</desc>
    <g id="Page-1" stroke="none" stroke-width="1" fill="none" fill-rule="evenodd">
        <g id="Group">
            <path d="M97.5446504,16.9799675 L97.5778547,16.9799675 L97.5778547,33.5150697 C97.5778547,35.4575773 97.3784326,37.1139385 97.0019866,38.4944727 C96.6253442,39.874832 96.0050728,41.0776616 95.1411726,42.1031363 C94.2660732,43.1385807 93.1475414,43.9567916 91.7407809,44.5484991 C90.3452195,45.1500013 88.6174189,45.4457676 86.5683819,45.4457676 C84.7077643,45.4457676 82.9133587,45.0513543 81.1965607,44.2527328 C79.4687602,43.4539365 77.785363,42.2708713 76.1239709,40.6734535 L76.1239709,43.769642 C76.1239709,43.9667613 76.0573659,44.1343214 75.9465541,44.2920867 C75.8247396,44.4400573 75.6475192,44.5680886 75.3928877,44.6667357 C75.1270571,44.755588 74.7616138,44.8442654 74.2853585,44.8935889 C73.8089068,44.9429125 73.2220362,44.9625019 72.5021521,44.9625019 C71.8042731,44.9625019 71.2284051,44.9429125 70.7631524,44.8935889 C70.2978998,44.8442654 69.9324564,44.755588 69.6334216,44.6667357 C69.3453893,44.5680886 69.1349647,44.449852 69.0353519,44.2920867 C68.9133409,44.1343214 68.8581315,43.9667613 68.8581315,43.769642 L68.8581315,16.9897623 C68.8581315,16.7926431 68.9355426,16.625083 69.0685561,16.4671427 C69.1903706,16.319347 69.4229969,16.1911408 69.755236,16.0924938 C70.0764725,16.0038164 70.5083244,15.914964 71.0399856,15.8658154 C71.5826494,15.8164919 72.2693293,15.7967275 73.1000253,15.7967275 C73.9307213,15.7967275 74.6175976,15.8164919 75.1602614,15.8658154 C75.68092,15.914964 76.1239709,16.0038164 76.445011,16.0924938 C76.7772501,16.1911408 77.0098764,16.3093774 77.1316909,16.4671427 C77.275707,16.625083 77.342312,16.7926431 77.342312,16.9897623 L77.342312,34.7771924 C78.5274488,36.1082282 79.6681822,37.1239082 80.7647088,37.8238826 C81.872238,38.5338266 82.946563,38.8789164 84.032087,38.8789164 C84.8737856,38.8789164 85.6158714,38.7311207 86.2583444,38.4451492 C86.8896184,38.1493829 87.4212795,37.7352052 87.8199272,37.2027909 C88.2187713,36.6801713 88.5288087,36.0491099 88.7394299,35.299812 C88.9608571,34.5701036 89.0604699,33.5446288 89.0604699,32.2433271 L89.0604699,16.9799675 C89.0604699,16.7826734 89.1380775,16.6151133 89.2708945,16.457348 C89.392709,16.3093774 89.6253353,16.1813461 89.9353728,16.082699 C90.2568058,15.9938467 90.6886577,15.9051693 91.2425205,15.8558458 C91.7961868,15.8065222 92.4828667,15.7869327 93.3247618,15.7869327 C94.1332562,15.7869327 94.8089335,15.8065222 95.3627963,15.8558458 C95.9054601,15.9051693 96.348511,15.9938467 96.6695511,16.082699 C96.979785,16.1813461 97.2124113,16.2995826 97.3342258,16.457348 C97.4782419,16.6151133 97.5446504,16.7826734 97.5446504,16.9799675 Z M55.8249055,33.3894742 L55.8137465,33.3992113 L43.1663059,33.3992113 C43.2103545,34.3402344 43.3759774,35.212576 43.6629787,36.0457953 C43.9388211,36.8691036 44.3360419,37.584608 44.8658002,38.1924825 C45.3955585,38.8001832 46.0578542,39.2804318 46.8634549,39.6332286 C47.6471291,39.9860253 48.5850714,40.1724216 49.6665144,40.1724216 C51.7967065,40.1724216 53.3748224,39.5744581 54.3900945,38.3590568 C55.4165256,37.1533927 55.8910763,35.4968652 55.8249055,33.3894742 Z M64.0026818,31.2525241 L64.0138408,31.2231388 L64.0138408,32.4091548 C64.0138408,34.2814639 63.7489617,36.0064991 63.2080444,37.594519 C62.6782861,39.1823651 61.8286369,40.5742517 60.6917905,41.7308824 C59.5441766,42.8875132 58.0872435,43.8088882 56.2994561,44.455885 C54.5335952,45.1223561 52.3816724,45.4457676 49.8763817,45.4457676 C47.5036284,45.4457676 45.3736321,45.102708 43.4752337,44.3971146 C41.5879943,43.7108215 39.976793,42.7012908 38.6635563,41.3780857 C37.3391606,40.0547068 36.3238884,38.4472126 35.6396663,36.5554292 C34.9442851,34.6537349 34.6020761,32.5268697 34.6020761,30.1645748 C34.6020761,27.6845651 34.9333219,25.5184036 35.5844586,23.6657426 C36.2465586,21.8229926 37.2508675,20.2940909 38.5862264,19.0785158 C39.9437076,17.8728517 41.6101165,16.9613877 43.6077711,16.3731613 C45.60523,15.7751978 47.9339346,15.4811715 50.6046525,15.4811715 C52.0835121,15.4811715 53.4740786,15.5695011 54.7653889,15.7458126 C56.0676624,15.9123869 57.215472,16.1182574 58.2197809,16.3535132 C59.2240899,16.588769 60.0518127,16.8240247 60.7029495,17.0691915 C61.3540862,17.3141844 61.7403438,17.5101439 61.8948077,17.6375959 C62.0383084,17.784696 62.1596868,17.921885 62.2479799,18.0787222 C62.3472362,18.2159113 62.4024438,18.4023076 62.4466882,18.6276524 C62.4907368,18.84326 62.5238223,19.107901 62.5459445,19.4116644 C62.5680667,19.7156016 62.5790299,20.0880465 62.5790299,20.5291728 C62.5790299,21.0191586 62.5680667,21.4408107 62.5347855,21.764396 C62.4907368,22.0876337 62.424566,22.3425375 62.3472362,22.518849 C62.2589431,22.6953343 62.1375646,22.8227862 62.005223,22.8914677 C61.8726855,22.9601492 61.7070626,22.9893605 61.4975869,22.9893605 C61.1663411,22.9893605 60.7360349,22.9013787 60.1953134,22.7052453 C59.6543961,22.518849 58.9813329,22.3131523 58.1645733,22.0778965 C57.3478137,21.8426408 56.3765902,21.6466812 55.2620618,21.4505478 C54.1363744,21.2545883 52.8450641,21.1662587 51.3662045,21.1662587 C49.9204303,21.1662587 48.6733644,21.342744 47.6359701,21.6760665 C46.5874167,22.0189522 45.7377675,22.5092857 45.0754717,23.1463716 C44.4245307,23.7933684 43.9388211,24.5773805 43.6408565,25.4888445 C43.3207698,26.4201305 43.1772691,27.4395722 43.1772691,28.5668177 L61.4202571,28.5668177 C62.2258577,28.5668177 62.855068,28.7824254 63.3184597,29.2235517 C63.7708881,29.664678 64.0026818,30.3410601 64.0026818,31.2525241 Z M22.3191756,27.4579968 C22.3191756,26.5897739 22.142209,25.8204314 21.7994589,25.1592448 C21.4453295,24.4884328 20.9587695,23.9359272 20.3503732,23.4819522 C19.7311864,23.0281521 19.0123332,22.683033 18.1716438,22.4560455 C17.3311505,22.2192574 16.2915209,22.1107514 15.0637416,22.1107514 L8.68215363,22.1107514 L8.68215363,33.1703124 L13.9134587,33.1703124 C15.5283279,33.1703124 16.8443943,33.0420304 17.8508673,32.7854662 C18.8573402,32.5191015 19.6868466,32.1542063 20.3283996,31.6706546 C20.9809393,31.1872779 21.4786824,30.5953952 21.8104457,29.8850309 C22.142209,29.1648661 22.3191756,28.3557964 22.3191756,27.4579968 Z M20.0407798,44.1115669 L20.029793,44.1115669 C20.029793,43.4110032 19.9079568,42.7499917 19.6646767,42.1187318 C19.4104099,41.4970975 19.0452937,40.944592 18.5365638,40.4710158 C18.0390169,39.9974396 17.4084508,39.6323695 16.645454,39.3660048 C15.8932479,39.0898395 14.8646051,38.9517569 13.5926822,38.9517569 L8.67116679,38.9517569 L8.67116679,49.0345889 L13.1282921,49.0345889 C14.4996851,49.0345889 15.5836545,48.9260829 16.4019778,48.7090709 C17.2204974,48.4820834 17.895207,48.1761665 18.4370936,47.7619186 C18.9789803,47.3474957 19.3772532,46.8245668 19.6425069,46.212908 C19.9079568,45.5914487 20.0407798,44.890885 20.0407798,44.1115669 Z M31.4769024,27.7441377 L31.4878893,27.7539382 C31.4878893,29.0759612 31.2555961,30.2599016 30.8131796,31.3255355 C30.3709593,32.3810188 29.7625631,33.3085701 28.9773965,34.0976887 C28.2030205,34.8869823 27.2962139,35.5282177 26.2565842,36.0313705 C25.2169545,36.5345233 24.0666717,36.8798174 22.8388924,37.0870288 C23.8122086,37.4027463 24.6638849,37.8269697 25.4049079,38.3498986 C26.157114,38.8728275 26.7872878,39.4647102 27.3072007,40.1552984 C27.8159306,40.8262854 28.2142035,41.5858274 28.4796534,42.4144982 C28.7449071,43.243344 28.8777301,44.1213675 28.8777301,45.0685198 C28.8777301,46.7456375 28.5459668,48.1959426 27.8712572,49.4390363 C27.1965475,50.6723294 26.2344143,51.6984111 24.9624915,52.5073058 C23.6905686,53.3163755 22.142209,53.9180587 20.2952428,54.3226811 C18.4370936,54.7173279 16.1918545,54.9243643 13.5263688,54.9243643 L2.62134216,54.9243643 C1.89130592,54.9243643 1.27192285,54.7271284 0.76319295,54.3424572 C0.254463048,53.9576109 0,53.3163755 0,52.438352 L0,18.5788813 C0,17.7006828 0.254463048,17.0594473 0.76319295,16.6746011 C1.26093601,16.2899298 1.89130592,16.0926939 2.62134216,16.0926939 L14.1789086,16.0926939 C15.9266008,16.0926939 17.5081171,16.1812488 18.9348367,16.3786597 C20.3503732,16.5562945 21.6997925,16.8620364 22.9495455,17.2566832 C24.1992985,17.6711061 25.3495814,18.1742589 26.389211,18.7958933 C27.4178539,19.4173526 28.3136737,20.1572935 29.0768666,21.0155409 C29.8288765,21.8739633 30.4151029,22.8702934 30.8353495,23.985105 C31.2555961,25.1098921 31.4769024,26.3627863 31.4769024,27.7441377 Z M200,20.0124961 L199.97787,20.0124961 C199.97787,20.5699706 199.955344,21.0198715 199.899624,21.3818049 C199.832838,21.7338484 199.766052,22.0175306 199.710331,22.2229616 C199.643545,22.4381089 199.532301,22.5751786 199.420662,22.64354 C199.298155,22.7120748 199.164584,22.7413973 199.031012,22.7413973 C198.875112,22.7413973 198.696687,22.7120748 198.507395,22.64354 C198.317905,22.5751786 198.084154,22.4870376 197.794485,22.4087864 C197.516079,22.3208189 197.193017,22.2326779 196.836562,22.1641431 C196.480305,22.0957817 196.068129,22.0664592 195.62256,22.0664592 C194.29692,22.0664592 193.37239,22.4283926 192.84897,23.1522593 C192.325353,23.8662362 192.069077,24.9615791 192.069077,26.4091391 L192.069077,38.8800511 L198.663294,38.8800511 C199.086733,38.8800511 199.409795,39.1148046 199.643545,39.5843117 C199.866231,40.0538187 199.97787,40.8363304 199.97787,41.9318469 C199.97787,42.5186439 199.955344,43.0077571 199.899624,43.399013 C199.8441,43.7999852 199.754987,44.1129899 199.643545,44.3477434 C199.532301,44.5726071 199.398532,44.7389992 199.220304,44.8366831 C199.053142,44.9442568 198.86385,44.9933589 198.629901,44.9933589 L192.069077,44.9933589 L192.069077,50.9303847 C192.069077,51.1259259 191.991226,51.3020344 191.857457,51.4682531 C191.73495,51.6150391 191.501002,51.7519353 191.189202,51.859509 C190.866141,51.9769725 190.431637,52.0552237 189.874825,52.1039788 C189.317814,52.1529075 188.627233,52.1725137 187.791816,52.1725137 C186.967663,52.1725137 186.287948,52.1529075 185.731136,52.1039788 C185.185191,52.0552237 184.728755,51.9670827 184.405693,51.859509 C184.082631,51.7519353 183.848682,51.6247555 183.726176,51.4682531 C183.592604,51.3020344 183.536883,51.1259259 183.536883,50.9303847 L183.536883,44.9933589 L179.905549,44.9933589 C179.682863,44.9933589 179.482308,44.9345404 179.315146,44.8366831 C179.148181,44.7291094 178.992281,44.5726071 178.891905,44.3477434 C178.769398,44.1129899 178.680285,43.7900953 178.624564,43.399013 C178.568843,42.9978673 178.546713,42.5089276 178.546713,41.9318469 C178.546713,40.8363304 178.657957,40.0538187 178.891905,39.5843117 C179.103525,39.1148046 179.448717,38.8800511 179.872156,38.8800511 L183.536883,38.8800511 L183.536883,25.2844737 C183.536883,23.6606317 183.737241,22.2425678 184.116024,21.0589103 C184.494609,19.8657101 185.096274,18.8777673 185.909363,18.0952556 C186.733517,17.3127439 187.758423,16.7261203 188.99495,16.3542971 C190.253607,15.9824739 191.71282,15.7869327 193.405783,15.7869327 C194.040841,15.7869327 194.66444,15.8162552 195.288236,15.8749002 C195.912229,15.9337187 196.491172,16.0216863 197.014789,16.1292599 C197.549472,16.2272908 198.017368,16.3542971 198.418281,16.5107995 C198.808129,16.6575855 199.108863,16.8238042 199.309418,17.0193453 C199.521038,17.2051702 199.688201,17.5280647 199.810707,17.9975717 C199.944279,18.4670788 200,19.1418433 200,20.0124961 Z M174.048443,16.9751218 L174.048443,43.587178 C174.048443,43.7834966 173.972479,43.9503761 173.842475,44.1075007 C173.72324,44.2548702 173.49554,44.3923107 173.170338,44.4905571 C172.855904,44.5985584 172.433199,44.6868757 171.912797,44.745928 C171.381626,44.8048062 170.709489,44.8342453 169.896194,44.8342453 C169.083283,44.8342453 168.411146,44.8048062 167.879783,44.745928 C167.370151,44.6868757 166.936675,44.5985584 166.622242,44.4905571 C166.296847,44.3923107 166.06934,44.2647994 165.950105,44.1075007 C165.808947,43.9503761 165.743945,43.7834966 165.743945,43.587178 L165.743945,16.9751218 C165.743945,16.778629 165.819909,16.6117495 165.950105,16.454625 C166.06934,16.3072554 166.296847,16.1797441 166.622242,16.0814977 C166.936675,15.9930063 167.359381,15.904689 167.879783,15.8555659 C168.411146,15.8064427 169.083283,15.7869327 169.896194,15.7869327 C170.709489,15.7869327 171.381626,15.8064427 171.912797,15.8555659 C172.422237,15.904689 172.855904,15.9930063 173.170338,16.0814977 C173.49554,16.1797441 173.72324,16.2975004 173.842475,16.454625 C173.983441,16.6117495 174.048443,16.778629 174.048443,16.9751218 Z M159.850475,51.5707489 L159.861592,51.5707489 C159.861592,52.2413868 159.839358,52.8234927 159.773436,53.2967709 C159.707515,53.7702241 159.608633,54.1549704 159.465478,54.4310639 C159.322713,54.7171304 159.179948,54.9144901 159.003833,55.0425639 C158.827912,55.1708127 158.619031,55.2301255 158.399228,55.2301255 L138.608749,55.2301255 C137.762107,55.2301255 137.069542,55.0129949 136.497897,54.5692857 C135.926058,54.1254015 135.640138,53.4052487 135.640138,52.4091775 L135.640138,9.03047416 C135.640138,8.78394958 135.706255,8.56699395 135.88198,8.37960728 C136.046979,8.2020186 136.321782,8.04420087 136.695662,7.92592506 C137.069542,7.80747429 137.586382,7.70896943 138.235064,7.63985857 C138.883552,7.5707477 139.686116,7.53138075 140.642953,7.53138075 C141.621243,7.53138075 142.434924,7.5707477 143.072685,7.63985857 C143.699134,7.70896943 144.215973,7.79750133 144.60097,7.92592506 C144.996694,8.05399887 145.271497,8.2020186 145.414457,8.37960728 C145.568338,8.56699395 145.645377,8.78394958 145.645377,9.03047416 L145.645377,31.5481939 L156.903903,31.5481939 C157.134823,31.5481939 157.332782,31.6075068 157.508508,31.7357555 C157.695545,31.8738023 157.849427,32.0711619 157.992387,32.3670264 C158.135347,32.6628909 158.223307,33.0376643 158.289229,33.4913465 C158.344228,33.9452037 158.388111,34.5171617 158.388111,35.1877995 C158.388111,35.8684103 158.35515,36.4405433 158.289229,36.8942255 C158.223307,37.3479078 158.135347,37.7128831 157.992387,37.9891516 C157.849427,38.2552722 157.684623,38.4526318 157.508508,38.5611096 C157.343509,38.6695874 157.134823,38.7386983 156.903903,38.7386983 L145.645377,38.7386983 L145.645377,47.9313183 L158.388111,47.9313183 C158.608109,47.9313183 158.806068,48.0002542 158.992911,48.1383009 C159.157714,48.2665497 159.311596,48.4737073 159.454751,48.7400029 C159.597516,49.0160964 159.696593,49.3910447 159.762514,49.8545249 C159.828436,50.3181801 159.850475,50.8901381 159.850475,51.5707489 Z M123.298899,33.3894742 L123.28774,33.3992113 L110.640216,33.3992113 C110.684264,34.3402344 110.849888,35.212576 111.136892,36.0457953 C111.412736,36.8691036 111.809959,37.584608 112.339721,38.1924825 C112.869679,38.8001832 113.531783,39.2804318 114.337585,39.6332286 C115.121069,39.9860253 116.059213,40.1724216 117.140663,40.1724216 C119.270674,40.1724216 120.8488,39.5744581 121.864275,38.3590568 C122.890517,37.1533927 123.365071,35.4968652 123.298899,33.3894742 Z M131.47673,31.2525241 L131.487889,31.2231388 L131.487889,32.4091548 C131.487889,34.2814639 131.223008,36.0064991 130.682283,37.594519 C130.152521,39.1823651 129.302671,40.5742517 128.165817,41.7308824 C127.018195,42.8875132 125.561448,43.8088882 123.773453,44.455885 C122.007581,45.1223561 119.855643,45.4457676 117.350336,45.4457676 C114.977567,45.4457676 112.847556,45.102708 110.949341,44.3971146 C109.061893,43.7108215 107.450877,42.7012908 106.137436,41.3780857 C104.813031,40.0547068 103.797753,38.4472126 103.113526,36.5554292 C102.41814,34.6537349 102.076125,32.5268697 102.076125,30.1645748 C102.076125,27.6845651 102.407177,25.5184036 103.058318,23.6657426 C103.720422,21.8229926 104.724738,20.2940909 106.060106,19.0785158 C107.417596,17.8728517 109.084212,16.9613877 111.081684,16.3731613 C113.079352,15.7751978 115.407876,15.4811715 118.078807,15.4811715 C119.557677,15.4811715 120.948057,15.5695011 122.239376,15.7458126 C123.541658,15.9123869 124.689475,16.1182574 125.693791,16.3535132 C126.698106,16.588769 127.525835,16.8240247 128.176976,17.0691915 C128.828117,17.3141844 129.214377,17.5101439 129.368842,17.6375959 C129.512344,17.784696 129.633723,17.921885 129.722212,18.0787222 C129.821274,18.2159113 129.876677,18.4023076 129.920726,18.6276524 C129.964775,18.84326 129.998057,19.107901 130.019983,19.4116644 C130.042105,19.7156016 130.053069,20.0880465 130.053069,20.5291728 C130.053069,21.0191586 130.042105,21.4408107 130.008824,21.764396 C129.964775,22.0876337 129.898604,22.3425375 129.821274,22.518849 C129.73298,22.6953343 129.611601,22.8227862 129.479258,22.8914677 C129.346915,22.9601492 129.181291,22.9893605 128.971619,22.9893605 C128.640371,22.9893605 128.210062,22.9013787 127.669336,22.7052453 C127.128611,22.518849 126.455348,22.3131523 125.638583,22.0778965 C124.821818,21.8426408 123.850588,21.6466812 122.736052,21.4505478 C121.610357,21.2545883 120.319038,21.1662587 118.840365,21.1662587 C117.394581,21.1662587 116.147507,21.342744 115.10991,21.6760665 C114.061349,22.0189522 113.211694,22.5092857 112.54959,23.1463716 C111.898449,23.7933684 111.412736,24.5773805 111.114965,25.4888445 C110.79468,26.4201305 110.651179,27.4395722 110.651179,28.5668177 L128.894288,28.5668177 C129.699894,28.5668177 130.329109,28.7824254 130.792503,29.2235517 C131.245131,29.664678 131.47673,30.3410601 131.47673,31.2525241 Z" id="logo" fill="#000000" transform="translate(100.000000, 31.380753) scale(-1, 1) rotate(-180.000000) translate(-100.000000, -31.380753) "></path>
            <path d="M173.427826,1.32268643 C174.369752,2.17155906 174.895397,3.31652154 174.895397,4.52084207 C174.895397,5.3697147 174.785645,6.07045485 174.479116,6.87993054 C174.150637,7.70901716 173.614113,8.63685875 172.72716,9.95954518 C172.584579,10.1668606 172.442387,10.3839815 172.27805,10.6210635 C171.423926,11.8745864 170.668287,13.2366698 170.088057,14.6187143 C169.967621,14.9048236 169.901964,15.0627615 169.901964,15.0627615 C169.868941,15.0233646 169.879819,15.0233646 169.84699,15.0627615 C169.606118,14.4803873 169.310467,13.8882075 169.014816,13.3254442 C168.620679,12.5655211 168.095034,11.6178935 167.470709,10.6210635 C167.361346,10.4431644 167.251788,10.2754211 167.142424,10.1176582 C166.353762,8.89355167 165.773532,7.99530155 165.39008,7.12664291 C165.028772,6.30736176 164.853556,5.52765264 164.853556,4.52084207 C164.853556,2.01362113 167.109401,0 169.868941,0 C171.205004,0 172.475216,0.473813806 173.416948,1.32268643 L173.427826,1.32268643 Z" id="path46" fill="#2E4821" transform="translate(169.874477, 7.531381) scale(1, -1) translate(-169.874477, -7.531381) "></path>
        </g>
    </g>
</svg>