<svg width="17" height="18" viewBox="0 0 17 18" fill="none" xmlns="http://www.w3.org/2000/svg">
<path d="M1 4.20005H2.6H15.4" stroke="#2D3A45" stroke-width="1.4" stroke-linecap="round" stroke-linejoin="round"/>
<path d="M14.5 4.2C14.5 3.8134 14.1866 3.5 13.8 3.5C13.4134 3.5 13.1 3.8134 13.1 4.2H14.5ZM3.29998 4.2C3.29998 3.8134 2.98657 3.5 2.59998 3.5C2.21338 3.5 1.89998 3.8134 1.89998 4.2H3.29998ZM4.29998 4.2C4.29998 4.5866 4.61338 4.9 4.99998 4.9C5.38657 4.9 5.69998 4.5866 5.69998 4.2H4.29998ZM10.7 4.2C10.7 4.5866 11.0134 4.9 11.4 4.9C11.7866 4.9 12.1 4.5866 12.1 4.2H10.7ZM13.1 4.2V15.4H14.5V4.2H13.1ZM13.1 15.4C13.1 15.8971 12.697 16.3 12.2 16.3V17.7C13.4702 17.7 14.5 16.6703 14.5 15.4H13.1ZM12.2 16.3H4.19998V17.7H12.2V16.3ZM4.19998 16.3C3.70292 16.3 3.29998 15.8971 3.29998 15.4H1.89998C1.89998 16.6703 2.92972 17.7 4.19998 17.7V16.3ZM3.29998 15.4V4.2H1.89998V15.4H3.29998ZM5.69998 4.2V2.6H4.29998V4.2H5.69998ZM5.69998 2.6C5.69998 2.10294 6.10292 1.7 6.59998 1.7V0.3C5.32972 0.3 4.29998 1.32975 4.29998 2.6H5.69998ZM6.59998 1.7H9.79998V0.3H6.59998V1.7ZM9.79998 1.7C10.297 1.7 10.7 2.10294 10.7 2.6H12.1C12.1 1.32975 11.0702 0.3 9.79998 0.3V1.7ZM10.7 2.6V4.2H12.1V2.6H10.7Z" fill="#2D3A45"/>
<path d="M6.59995 8.19995V13" stroke="#2D3A45" stroke-width="1.4" stroke-linecap="round" stroke-linejoin="round"/>
<path d="M9.80002 8.19995V13" stroke="#2D3A45" stroke-width="1.4" stroke-linecap="round" stroke-linejoin="round"/>
</svg>
