<svg width="185" height="45" viewBox="0 0 185 45" fill="none" xmlns="http://www.w3.org/2000/svg">
<path fill-rule="evenodd" clip-rule="evenodd" d="M185 0H0V45H185V0ZM31.0392 10H12.4183V13.9216H20.4706V35H25.5033V13.9216H31.0392V10ZM105.987 10H112.53H114.039H127.124V13.9216H119.074V34.9987H114.039V13.9216H112.53H105.987V10ZM95.5492 10H75.4185V13.9216H89.4134L75.4185 31.0784V35H96.0524V31.0784H81.8491L95.5492 13.9216V10ZM27.0195 20.2942H64.7646V24.2158H27.0195V20.2942ZM73.3202 31.0784H27.0195V34.9999H73.3202V31.0784ZM32.5557 10H70.3008V13.9216H32.5557V10ZM154.301 10H159.333H164.33C168.797 10 172.418 13.6212 172.418 18.0882C172.418 22.5552 168.797 26.1765 164.33 26.1765H159.333V35H154.301V26.1765V10ZM163.967 22.2549H159.333V14.4118H163.967C166.133 14.4118 167.889 16.1675 167.889 18.3333C167.889 20.4992 166.133 22.2549 163.967 22.2549ZM151.784 22.5C151.784 29.1329 146.264 34.5098 139.454 34.5098C132.645 34.5098 127.124 29.1329 127.124 22.5C127.124 15.8672 132.645 10.4902 139.454 10.4902C146.264 10.4902 151.784 15.8672 151.784 22.5ZM147.255 22.5C147.255 26.6963 143.763 30.0981 139.454 30.0981C135.146 30.0981 131.654 26.6963 131.654 22.5C131.654 18.3038 135.146 14.902 139.454 14.902C143.763 14.902 147.255 18.3038 147.255 22.5Z" fill="#12287E"/>
</svg>
